<?xml version="1.0" encoding="utf-8" standalone="no"?>
<!DOCTYPE svg PUBLIC "-//W3C//DTD SVG 1.1//EN"
  "http://www.w3.org/Graphics/SVG/1.1/DTD/svg11.dtd">
<svg xmlns:xlink="http://www.w3.org/1999/xlink" width="360pt" height="230.4pt" viewBox="0 0 360 230.4" xmlns="http://www.w3.org/2000/svg" version="1.1">
 <metadata>
  <rdf:RDF xmlns:dc="http://purl.org/dc/elements/1.1/" xmlns:cc="http://creativecommons.org/ns#" xmlns:rdf="http://www.w3.org/1999/02/22-rdf-syntax-ns#">
   <cc:Work>
    <dc:type rdf:resource="http://purl.org/dc/dcmitype/StillImage"/>
    <dc:date>2024-05-22T13:15:12.449204</dc:date>
    <dc:format>image/svg+xml</dc:format>
    <dc:creator>
     <cc:Agent>
      <dc:title>Matplotlib v3.7.2, https://matplotlib.org/</dc:title>
     </cc:Agent>
    </dc:creator>
   </cc:Work>
  </rdf:RDF>
 </metadata>
 <defs>
  <style type="text/css">*{stroke-linejoin: round; stroke-linecap: butt}</style>
 </defs>
 <g id="figure_1">
  <g id="patch_1">
   <path d="M 0 230.4 
L 360 230.4 
L 360 0 
L 0 0 
z
" style="fill: #ffffff"/>
  </g>
  <g id="axes_1">
   <g id="patch_2">
    <path d="M 52.58 70.032739 
L 170.128958 70.032739 
L 170.128958 11.945479 
L 52.58 11.945479 
z
" style="fill: #ffffff"/>
   </g>
   <g id="patch_3">
    <path d="M 56.498299 70.032739 
L 64.334896 70.032739 
L 64.334896 21.047073 
L 56.498299 21.047073 
z
" clip-path="url(#paaa1c6ad8b)" style="fill: #3a923a"/>
   </g>
   <g id="patch_4">
    <path d="M 0 0 
z
" clip-path="url(#paaa1c6ad8b)" style="fill: #3a923a"/>
   </g>
   <g id="patch_5">
    <path d="M 0 0 
z
" clip-path="url(#paaa1c6ad8b)" style="fill: #3a923a"/>
   </g>
   <g id="patch_6">
    <path d="M 0 0 
z
" clip-path="url(#paaa1c6ad8b)" style="fill: #c03d3e"/>
   </g>
   <g id="patch_7">
    <path d="M 0 0 
z
" clip-path="url(#paaa1c6ad8b)" style="fill: #c03d3e"/>
   </g>
   <g id="patch_8">
    <path d="M 0 0 
z
" clip-path="url(#paaa1c6ad8b)" style="fill: #c03d3e"/>
   </g>
   <g id="patch_9">
    <path d="M 72.171493 70.032739 
L 80.00809 70.032739 
L 80.00809 38.259179 
L 72.171493 38.259179 
z
" clip-path="url(#paaa1c6ad8b)" style="fill: #3274a1"/>
   </g>
   <g id="patch_10">
    <path d="M 111.354479 70.032739 
L 119.191076 70.032739 
L 119.191076 23.937447 
L 111.354479 23.937447 
z
" clip-path="url(#paaa1c6ad8b)" style="fill: #3274a1"/>
   </g>
   <g id="patch_11">
    <path d="M 150.537465 70.032739 
L 158.374062 70.032739 
L 158.374062 15.238929 
L 150.537465 15.238929 
z
" clip-path="url(#paaa1c6ad8b)" style="fill: #3274a1"/>
   </g>
   <g id="patch_12">
    <path d="M 80.00809 70.032739 
L 87.844688 70.032739 
L 87.844688 37.01262 
L 80.00809 37.01262 
z
" clip-path="url(#paaa1c6ad8b)" style="fill: #e1812c"/>
   </g>
   <g id="patch_13">
    <path d="M 119.191076 70.032739 
L 127.027674 70.032739 
L 127.027674 23.478549 
L 119.191076 23.478549 
z
" clip-path="url(#paaa1c6ad8b)" style="fill: #e1812c"/>
   </g>
   <g id="patch_14">
    <path d="M 158.374062 70.032739 
L 166.21066 70.032739 
L 166.21066 14.711539 
L 158.374062 14.711539 
z
" clip-path="url(#paaa1c6ad8b)" style="fill: #e1812c"/>
   </g>
   <g id="matplotlib.axis_1">
    <g id="xtick_1">
     <g id="line2d_1">
      <defs>
       <path id="m7122bc5fe3" d="M 0 0 
L 0 3.5 
" style="stroke: #000000; stroke-width: 0.8"/>
      </defs>
      <g>
       <use xlink:href="#m7122bc5fe3" x="72.171493" y="70.032739" style="stroke: #000000; stroke-width: 0.8"/>
      </g>
     </g>
     <g id="text_1">
      <!-- 32768 -->
      <g transform="translate(51.493368 86.910708) scale(0.13 -0.13)">
       <defs>
        <path id="DejaVuSans-33" d="M 2597 2516 
Q 3050 2419 3304 2112 
Q 3559 1806 3559 1356 
Q 3559 666 3084 287 
Q 2609 -91 1734 -91 
Q 1441 -91 1130 -33 
Q 819 25 488 141 
L 488 750 
Q 750 597 1062 519 
Q 1375 441 1716 441 
Q 2309 441 2620 675 
Q 2931 909 2931 1356 
Q 2931 1769 2642 2001 
Q 2353 2234 1838 2234 
L 1294 2234 
L 1294 2753 
L 1863 2753 
Q 2328 2753 2575 2939 
Q 2822 3125 2822 3475 
Q 2822 3834 2567 4026 
Q 2313 4219 1838 4219 
Q 1578 4219 1281 4162 
Q 984 4106 628 3988 
L 628 4550 
Q 988 4650 1302 4700 
Q 1616 4750 1894 4750 
Q 2613 4750 3031 4423 
Q 3450 4097 3450 3541 
Q 3450 3153 3228 2886 
Q 3006 2619 2597 2516 
z
" transform="scale(0.015625)"/>
        <path id="DejaVuSans-32" d="M 1228 531 
L 3431 531 
L 3431 0 
L 469 0 
L 469 531 
Q 828 903 1448 1529 
Q 2069 2156 2228 2338 
Q 2531 2678 2651 2914 
Q 2772 3150 2772 3378 
Q 2772 3750 2511 3984 
Q 2250 4219 1831 4219 
Q 1534 4219 1204 4116 
Q 875 4013 500 3803 
L 500 4441 
Q 881 4594 1212 4672 
Q 1544 4750 1819 4750 
Q 2544 4750 2975 4387 
Q 3406 4025 3406 3419 
Q 3406 3131 3298 2873 
Q 3191 2616 2906 2266 
Q 2828 2175 2409 1742 
Q 1991 1309 1228 531 
z
" transform="scale(0.015625)"/>
        <path id="DejaVuSans-37" d="M 525 4666 
L 3525 4666 
L 3525 4397 
L 1831 0 
L 1172 0 
L 2766 4134 
L 525 4134 
L 525 4666 
z
" transform="scale(0.015625)"/>
        <path id="DejaVuSans-36" d="M 2113 2584 
Q 1688 2584 1439 2293 
Q 1191 2003 1191 1497 
Q 1191 994 1439 701 
Q 1688 409 2113 409 
Q 2538 409 2786 701 
Q 3034 994 3034 1497 
Q 3034 2003 2786 2293 
Q 2538 2584 2113 2584 
z
M 3366 4563 
L 3366 3988 
Q 3128 4100 2886 4159 
Q 2644 4219 2406 4219 
Q 1781 4219 1451 3797 
Q 1122 3375 1075 2522 
Q 1259 2794 1537 2939 
Q 1816 3084 2150 3084 
Q 2853 3084 3261 2657 
Q 3669 2231 3669 1497 
Q 3669 778 3244 343 
Q 2819 -91 2113 -91 
Q 1303 -91 875 529 
Q 447 1150 447 2328 
Q 447 3434 972 4092 
Q 1497 4750 2381 4750 
Q 2619 4750 2861 4703 
Q 3103 4656 3366 4563 
z
" transform="scale(0.015625)"/>
        <path id="DejaVuSans-38" d="M 2034 2216 
Q 1584 2216 1326 1975 
Q 1069 1734 1069 1313 
Q 1069 891 1326 650 
Q 1584 409 2034 409 
Q 2484 409 2743 651 
Q 3003 894 3003 1313 
Q 3003 1734 2745 1975 
Q 2488 2216 2034 2216 
z
M 1403 2484 
Q 997 2584 770 2862 
Q 544 3141 544 3541 
Q 544 4100 942 4425 
Q 1341 4750 2034 4750 
Q 2731 4750 3128 4425 
Q 3525 4100 3525 3541 
Q 3525 3141 3298 2862 
Q 3072 2584 2669 2484 
Q 3125 2378 3379 2068 
Q 3634 1759 3634 1313 
Q 3634 634 3220 271 
Q 2806 -91 2034 -91 
Q 1263 -91 848 271 
Q 434 634 434 1313 
Q 434 1759 690 2068 
Q 947 2378 1403 2484 
z
M 1172 3481 
Q 1172 3119 1398 2916 
Q 1625 2713 2034 2713 
Q 2441 2713 2670 2916 
Q 2900 3119 2900 3481 
Q 2900 3844 2670 4047 
Q 2441 4250 2034 4250 
Q 1625 4250 1398 4047 
Q 1172 3844 1172 3481 
z
" transform="scale(0.015625)"/>
       </defs>
       <use xlink:href="#DejaVuSans-33"/>
       <use xlink:href="#DejaVuSans-32" x="63.623047"/>
       <use xlink:href="#DejaVuSans-37" x="127.246094"/>
       <use xlink:href="#DejaVuSans-36" x="190.869141"/>
       <use xlink:href="#DejaVuSans-38" x="254.492188"/>
      </g>
     </g>
    </g>
    <g id="xtick_2">
     <g id="line2d_2">
      <g>
       <use xlink:href="#m7122bc5fe3" x="111.354479" y="70.032739" style="stroke: #000000; stroke-width: 0.8"/>
      </g>
     </g>
     <g id="text_2">
      <!-- 49152 -->
      <g transform="translate(90.676354 86.910708) scale(0.13 -0.13)">
       <defs>
        <path id="DejaVuSans-34" d="M 2419 4116 
L 825 1625 
L 2419 1625 
L 2419 4116 
z
M 2253 4666 
L 3047 4666 
L 3047 1625 
L 3713 1625 
L 3713 1100 
L 3047 1100 
L 3047 0 
L 2419 0 
L 2419 1100 
L 313 1100 
L 313 1709 
L 2253 4666 
z
" transform="scale(0.015625)"/>
        <path id="DejaVuSans-39" d="M 703 97 
L 703 672 
Q 941 559 1184 500 
Q 1428 441 1663 441 
Q 2288 441 2617 861 
Q 2947 1281 2994 2138 
Q 2813 1869 2534 1725 
Q 2256 1581 1919 1581 
Q 1219 1581 811 2004 
Q 403 2428 403 3163 
Q 403 3881 828 4315 
Q 1253 4750 1959 4750 
Q 2769 4750 3195 4129 
Q 3622 3509 3622 2328 
Q 3622 1225 3098 567 
Q 2575 -91 1691 -91 
Q 1453 -91 1209 -44 
Q 966 3 703 97 
z
M 1959 2075 
Q 2384 2075 2632 2365 
Q 2881 2656 2881 3163 
Q 2881 3666 2632 3958 
Q 2384 4250 1959 4250 
Q 1534 4250 1286 3958 
Q 1038 3666 1038 3163 
Q 1038 2656 1286 2365 
Q 1534 2075 1959 2075 
z
" transform="scale(0.015625)"/>
        <path id="DejaVuSans-31" d="M 794 531 
L 1825 531 
L 1825 4091 
L 703 3866 
L 703 4441 
L 1819 4666 
L 2450 4666 
L 2450 531 
L 3481 531 
L 3481 0 
L 794 0 
L 794 531 
z
" transform="scale(0.015625)"/>
        <path id="DejaVuSans-35" d="M 691 4666 
L 3169 4666 
L 3169 4134 
L 1269 4134 
L 1269 2991 
Q 1406 3038 1543 3061 
Q 1681 3084 1819 3084 
Q 2600 3084 3056 2656 
Q 3513 2228 3513 1497 
Q 3513 744 3044 326 
Q 2575 -91 1722 -91 
Q 1428 -91 1123 -41 
Q 819 9 494 109 
L 494 744 
Q 775 591 1075 516 
Q 1375 441 1709 441 
Q 2250 441 2565 725 
Q 2881 1009 2881 1497 
Q 2881 1984 2565 2268 
Q 2250 2553 1709 2553 
Q 1456 2553 1204 2497 
Q 953 2441 691 2322 
L 691 4666 
z
" transform="scale(0.015625)"/>
       </defs>
       <use xlink:href="#DejaVuSans-34"/>
       <use xlink:href="#DejaVuSans-39" x="63.623047"/>
       <use xlink:href="#DejaVuSans-31" x="127.246094"/>
       <use xlink:href="#DejaVuSans-35" x="190.869141"/>
       <use xlink:href="#DejaVuSans-32" x="254.492188"/>
      </g>
     </g>
    </g>
    <g id="xtick_3">
     <g id="line2d_3">
      <g>
       <use xlink:href="#m7122bc5fe3" x="150.537465" y="70.032739" style="stroke: #000000; stroke-width: 0.8"/>
      </g>
     </g>
     <g id="text_3">
      <!-- 65536 -->
      <g transform="translate(129.85934 86.910708) scale(0.13 -0.13)">
       <use xlink:href="#DejaVuSans-36"/>
       <use xlink:href="#DejaVuSans-35" x="63.623047"/>
       <use xlink:href="#DejaVuSans-35" x="127.246094"/>
       <use xlink:href="#DejaVuSans-33" x="190.869141"/>
       <use xlink:href="#DejaVuSans-36" x="254.492188"/>
      </g>
     </g>
    </g>
    <g id="text_4">
     <!-- Sequence Length -->
     <g transform="translate(41.753229 105.771802) scale(0.16 -0.16)">
      <defs>
       <path id="DejaVuSans-53" d="M 3425 4513 
L 3425 3897 
Q 3066 4069 2747 4153 
Q 2428 4238 2131 4238 
Q 1616 4238 1336 4038 
Q 1056 3838 1056 3469 
Q 1056 3159 1242 3001 
Q 1428 2844 1947 2747 
L 2328 2669 
Q 3034 2534 3370 2195 
Q 3706 1856 3706 1288 
Q 3706 609 3251 259 
Q 2797 -91 1919 -91 
Q 1588 -91 1214 -16 
Q 841 59 441 206 
L 441 856 
Q 825 641 1194 531 
Q 1563 422 1919 422 
Q 2459 422 2753 634 
Q 3047 847 3047 1241 
Q 3047 1584 2836 1778 
Q 2625 1972 2144 2069 
L 1759 2144 
Q 1053 2284 737 2584 
Q 422 2884 422 3419 
Q 422 4038 858 4394 
Q 1294 4750 2059 4750 
Q 2388 4750 2728 4690 
Q 3069 4631 3425 4513 
z
" transform="scale(0.015625)"/>
       <path id="DejaVuSans-65" d="M 3597 1894 
L 3597 1613 
L 953 1613 
Q 991 1019 1311 708 
Q 1631 397 2203 397 
Q 2534 397 2845 478 
Q 3156 559 3463 722 
L 3463 178 
Q 3153 47 2828 -22 
Q 2503 -91 2169 -91 
Q 1331 -91 842 396 
Q 353 884 353 1716 
Q 353 2575 817 3079 
Q 1281 3584 2069 3584 
Q 2775 3584 3186 3129 
Q 3597 2675 3597 1894 
z
M 3022 2063 
Q 3016 2534 2758 2815 
Q 2500 3097 2075 3097 
Q 1594 3097 1305 2825 
Q 1016 2553 972 2059 
L 3022 2063 
z
" transform="scale(0.015625)"/>
       <path id="DejaVuSans-71" d="M 947 1747 
Q 947 1113 1208 752 
Q 1469 391 1925 391 
Q 2381 391 2643 752 
Q 2906 1113 2906 1747 
Q 2906 2381 2643 2742 
Q 2381 3103 1925 3103 
Q 1469 3103 1208 2742 
Q 947 2381 947 1747 
z
M 2906 525 
Q 2725 213 2448 61 
Q 2172 -91 1784 -91 
Q 1150 -91 751 415 
Q 353 922 353 1747 
Q 353 2572 751 3078 
Q 1150 3584 1784 3584 
Q 2172 3584 2448 3432 
Q 2725 3281 2906 2969 
L 2906 3500 
L 3481 3500 
L 3481 -1331 
L 2906 -1331 
L 2906 525 
z
" transform="scale(0.015625)"/>
       <path id="DejaVuSans-75" d="M 544 1381 
L 544 3500 
L 1119 3500 
L 1119 1403 
Q 1119 906 1312 657 
Q 1506 409 1894 409 
Q 2359 409 2629 706 
Q 2900 1003 2900 1516 
L 2900 3500 
L 3475 3500 
L 3475 0 
L 2900 0 
L 2900 538 
Q 2691 219 2414 64 
Q 2138 -91 1772 -91 
Q 1169 -91 856 284 
Q 544 659 544 1381 
z
M 1991 3584 
L 1991 3584 
z
" transform="scale(0.015625)"/>
       <path id="DejaVuSans-6e" d="M 3513 2113 
L 3513 0 
L 2938 0 
L 2938 2094 
Q 2938 2591 2744 2837 
Q 2550 3084 2163 3084 
Q 1697 3084 1428 2787 
Q 1159 2491 1159 1978 
L 1159 0 
L 581 0 
L 581 3500 
L 1159 3500 
L 1159 2956 
Q 1366 3272 1645 3428 
Q 1925 3584 2291 3584 
Q 2894 3584 3203 3211 
Q 3513 2838 3513 2113 
z
" transform="scale(0.015625)"/>
       <path id="DejaVuSans-63" d="M 3122 3366 
L 3122 2828 
Q 2878 2963 2633 3030 
Q 2388 3097 2138 3097 
Q 1578 3097 1268 2742 
Q 959 2388 959 1747 
Q 959 1106 1268 751 
Q 1578 397 2138 397 
Q 2388 397 2633 464 
Q 2878 531 3122 666 
L 3122 134 
Q 2881 22 2623 -34 
Q 2366 -91 2075 -91 
Q 1284 -91 818 406 
Q 353 903 353 1747 
Q 353 2603 823 3093 
Q 1294 3584 2113 3584 
Q 2378 3584 2631 3529 
Q 2884 3475 3122 3366 
z
" transform="scale(0.015625)"/>
       <path id="DejaVuSans-20" transform="scale(0.015625)"/>
       <path id="DejaVuSans-4c" d="M 628 4666 
L 1259 4666 
L 1259 531 
L 3531 531 
L 3531 0 
L 628 0 
L 628 4666 
z
" transform="scale(0.015625)"/>
       <path id="DejaVuSans-67" d="M 2906 1791 
Q 2906 2416 2648 2759 
Q 2391 3103 1925 3103 
Q 1463 3103 1205 2759 
Q 947 2416 947 1791 
Q 947 1169 1205 825 
Q 1463 481 1925 481 
Q 2391 481 2648 825 
Q 2906 1169 2906 1791 
z
M 3481 434 
Q 3481 -459 3084 -895 
Q 2688 -1331 1869 -1331 
Q 1566 -1331 1297 -1286 
Q 1028 -1241 775 -1147 
L 775 -588 
Q 1028 -725 1275 -790 
Q 1522 -856 1778 -856 
Q 2344 -856 2625 -561 
Q 2906 -266 2906 331 
L 2906 616 
Q 2728 306 2450 153 
Q 2172 0 1784 0 
Q 1141 0 747 490 
Q 353 981 353 1791 
Q 353 2603 747 3093 
Q 1141 3584 1784 3584 
Q 2172 3584 2450 3431 
Q 2728 3278 2906 2969 
L 2906 3500 
L 3481 3500 
L 3481 434 
z
" transform="scale(0.015625)"/>
       <path id="DejaVuSans-74" d="M 1172 4494 
L 1172 3500 
L 2356 3500 
L 2356 3053 
L 1172 3053 
L 1172 1153 
Q 1172 725 1289 603 
Q 1406 481 1766 481 
L 2356 481 
L 2356 0 
L 1766 0 
Q 1100 0 847 248 
Q 594 497 594 1153 
L 594 3053 
L 172 3053 
L 172 3500 
L 594 3500 
L 594 4494 
L 1172 4494 
z
" transform="scale(0.015625)"/>
       <path id="DejaVuSans-68" d="M 3513 2113 
L 3513 0 
L 2938 0 
L 2938 2094 
Q 2938 2591 2744 2837 
Q 2550 3084 2163 3084 
Q 1697 3084 1428 2787 
Q 1159 2491 1159 1978 
L 1159 0 
L 581 0 
L 581 4863 
L 1159 4863 
L 1159 2956 
Q 1366 3272 1645 3428 
Q 1925 3584 2291 3584 
Q 2894 3584 3203 3211 
Q 3513 2838 3513 2113 
z
" transform="scale(0.015625)"/>
      </defs>
      <use xlink:href="#DejaVuSans-53"/>
      <use xlink:href="#DejaVuSans-65" x="63.476562"/>
      <use xlink:href="#DejaVuSans-71" x="125"/>
      <use xlink:href="#DejaVuSans-75" x="188.476562"/>
      <use xlink:href="#DejaVuSans-65" x="251.855469"/>
      <use xlink:href="#DejaVuSans-6e" x="313.378906"/>
      <use xlink:href="#DejaVuSans-63" x="376.757812"/>
      <use xlink:href="#DejaVuSans-65" x="431.738281"/>
      <use xlink:href="#DejaVuSans-20" x="493.261719"/>
      <use xlink:href="#DejaVuSans-4c" x="525.048828"/>
      <use xlink:href="#DejaVuSans-65" x="579.011719"/>
      <use xlink:href="#DejaVuSans-6e" x="640.535156"/>
      <use xlink:href="#DejaVuSans-67" x="703.914062"/>
      <use xlink:href="#DejaVuSans-74" x="767.390625"/>
      <use xlink:href="#DejaVuSans-68" x="806.599609"/>
     </g>
    </g>
   </g>
   <g id="matplotlib.axis_2">
    <g id="ytick_1">
     <g id="line2d_4">
      <defs>
       <path id="me85d586fb9" d="M 0 0 
L -3.5 0 
" style="stroke: #000000; stroke-width: 0.8"/>
      </defs>
      <g>
       <use xlink:href="#me85d586fb9" x="52.58" y="70.032739" style="stroke: #000000; stroke-width: 0.8"/>
      </g>
     </g>
     <g id="text_5">
      <!-- 0 -->
      <g transform="translate(37.30875 74.971724) scale(0.13 -0.13)">
       <defs>
        <path id="DejaVuSans-30" d="M 2034 4250 
Q 1547 4250 1301 3770 
Q 1056 3291 1056 2328 
Q 1056 1369 1301 889 
Q 1547 409 2034 409 
Q 2525 409 2770 889 
Q 3016 1369 3016 2328 
Q 3016 3291 2770 3770 
Q 2525 4250 2034 4250 
z
M 2034 4750 
Q 2819 4750 3233 4129 
Q 3647 3509 3647 2328 
Q 3647 1150 3233 529 
Q 2819 -91 2034 -91 
Q 1250 -91 836 529 
Q 422 1150 422 2328 
Q 422 3509 836 4129 
Q 1250 4750 2034 4750 
z
" transform="scale(0.015625)"/>
       </defs>
       <use xlink:href="#DejaVuSans-30"/>
      </g>
     </g>
    </g>
    <g id="ytick_2">
     <g id="line2d_5">
      <g>
       <use xlink:href="#me85d586fb9" x="52.58" y="15.238929" style="stroke: #000000; stroke-width: 0.8"/>
      </g>
     </g>
     <g id="text_6">
      <!-- 50 -->
      <g transform="translate(29.0375 20.177914) scale(0.13 -0.13)">
       <use xlink:href="#DejaVuSans-35"/>
       <use xlink:href="#DejaVuSans-30" x="63.623047"/>
      </g>
     </g>
    </g>
    <g id="text_7">
     <!-- Memory (GB) -->
     <g transform="translate(21.71 93.997859) rotate(-90) scale(0.16 -0.16)">
      <defs>
       <path id="DejaVuSans-4d" d="M 628 4666 
L 1569 4666 
L 2759 1491 
L 3956 4666 
L 4897 4666 
L 4897 0 
L 4281 0 
L 4281 4097 
L 3078 897 
L 2444 897 
L 1241 4097 
L 1241 0 
L 628 0 
L 628 4666 
z
" transform="scale(0.015625)"/>
       <path id="DejaVuSans-6d" d="M 3328 2828 
Q 3544 3216 3844 3400 
Q 4144 3584 4550 3584 
Q 5097 3584 5394 3201 
Q 5691 2819 5691 2113 
L 5691 0 
L 5113 0 
L 5113 2094 
Q 5113 2597 4934 2840 
Q 4756 3084 4391 3084 
Q 3944 3084 3684 2787 
Q 3425 2491 3425 1978 
L 3425 0 
L 2847 0 
L 2847 2094 
Q 2847 2600 2669 2842 
Q 2491 3084 2119 3084 
Q 1678 3084 1418 2786 
Q 1159 2488 1159 1978 
L 1159 0 
L 581 0 
L 581 3500 
L 1159 3500 
L 1159 2956 
Q 1356 3278 1631 3431 
Q 1906 3584 2284 3584 
Q 2666 3584 2933 3390 
Q 3200 3197 3328 2828 
z
" transform="scale(0.015625)"/>
       <path id="DejaVuSans-6f" d="M 1959 3097 
Q 1497 3097 1228 2736 
Q 959 2375 959 1747 
Q 959 1119 1226 758 
Q 1494 397 1959 397 
Q 2419 397 2687 759 
Q 2956 1122 2956 1747 
Q 2956 2369 2687 2733 
Q 2419 3097 1959 3097 
z
M 1959 3584 
Q 2709 3584 3137 3096 
Q 3566 2609 3566 1747 
Q 3566 888 3137 398 
Q 2709 -91 1959 -91 
Q 1206 -91 779 398 
Q 353 888 353 1747 
Q 353 2609 779 3096 
Q 1206 3584 1959 3584 
z
" transform="scale(0.015625)"/>
       <path id="DejaVuSans-72" d="M 2631 2963 
Q 2534 3019 2420 3045 
Q 2306 3072 2169 3072 
Q 1681 3072 1420 2755 
Q 1159 2438 1159 1844 
L 1159 0 
L 581 0 
L 581 3500 
L 1159 3500 
L 1159 2956 
Q 1341 3275 1631 3429 
Q 1922 3584 2338 3584 
Q 2397 3584 2469 3576 
Q 2541 3569 2628 3553 
L 2631 2963 
z
" transform="scale(0.015625)"/>
       <path id="DejaVuSans-79" d="M 2059 -325 
Q 1816 -950 1584 -1140 
Q 1353 -1331 966 -1331 
L 506 -1331 
L 506 -850 
L 844 -850 
Q 1081 -850 1212 -737 
Q 1344 -625 1503 -206 
L 1606 56 
L 191 3500 
L 800 3500 
L 1894 763 
L 2988 3500 
L 3597 3500 
L 2059 -325 
z
" transform="scale(0.015625)"/>
       <path id="DejaVuSans-28" d="M 1984 4856 
Q 1566 4138 1362 3434 
Q 1159 2731 1159 2009 
Q 1159 1288 1364 580 
Q 1569 -128 1984 -844 
L 1484 -844 
Q 1016 -109 783 600 
Q 550 1309 550 2009 
Q 550 2706 781 3412 
Q 1013 4119 1484 4856 
L 1984 4856 
z
" transform="scale(0.015625)"/>
       <path id="DejaVuSans-47" d="M 3809 666 
L 3809 1919 
L 2778 1919 
L 2778 2438 
L 4434 2438 
L 4434 434 
Q 4069 175 3628 42 
Q 3188 -91 2688 -91 
Q 1594 -91 976 548 
Q 359 1188 359 2328 
Q 359 3472 976 4111 
Q 1594 4750 2688 4750 
Q 3144 4750 3555 4637 
Q 3966 4525 4313 4306 
L 4313 3634 
Q 3963 3931 3569 4081 
Q 3175 4231 2741 4231 
Q 1884 4231 1454 3753 
Q 1025 3275 1025 2328 
Q 1025 1384 1454 906 
Q 1884 428 2741 428 
Q 3075 428 3337 486 
Q 3600 544 3809 666 
z
" transform="scale(0.015625)"/>
       <path id="DejaVuSans-42" d="M 1259 2228 
L 1259 519 
L 2272 519 
Q 2781 519 3026 730 
Q 3272 941 3272 1375 
Q 3272 1813 3026 2020 
Q 2781 2228 2272 2228 
L 1259 2228 
z
M 1259 4147 
L 1259 2741 
L 2194 2741 
Q 2656 2741 2882 2914 
Q 3109 3088 3109 3444 
Q 3109 3797 2882 3972 
Q 2656 4147 2194 4147 
L 1259 4147 
z
M 628 4666 
L 2241 4666 
Q 2963 4666 3353 4366 
Q 3744 4066 3744 3513 
Q 3744 3084 3544 2831 
Q 3344 2578 2956 2516 
Q 3422 2416 3680 2098 
Q 3938 1781 3938 1306 
Q 3938 681 3513 340 
Q 3088 0 2303 0 
L 628 0 
L 628 4666 
z
" transform="scale(0.015625)"/>
       <path id="DejaVuSans-29" d="M 513 4856 
L 1013 4856 
Q 1481 4119 1714 3412 
Q 1947 2706 1947 2009 
Q 1947 1309 1714 600 
Q 1481 -109 1013 -844 
L 513 -844 
Q 928 -128 1133 580 
Q 1338 1288 1338 2009 
Q 1338 2731 1133 3434 
Q 928 4138 513 4856 
z
" transform="scale(0.015625)"/>
      </defs>
      <use xlink:href="#DejaVuSans-4d"/>
      <use xlink:href="#DejaVuSans-65" x="86.279297"/>
      <use xlink:href="#DejaVuSans-6d" x="147.802734"/>
      <use xlink:href="#DejaVuSans-6f" x="245.214844"/>
      <use xlink:href="#DejaVuSans-72" x="306.396484"/>
      <use xlink:href="#DejaVuSans-79" x="347.509766"/>
      <use xlink:href="#DejaVuSans-20" x="406.689453"/>
      <use xlink:href="#DejaVuSans-28" x="438.476562"/>
      <use xlink:href="#DejaVuSans-47" x="477.490234"/>
      <use xlink:href="#DejaVuSans-42" x="554.980469"/>
      <use xlink:href="#DejaVuSans-29" x="623.583984"/>
     </g>
    </g>
   </g>
   <g id="patch_15">
    <path d="M 52.58 70.032739 
L 52.58 11.945479 
" style="fill: none; stroke: #000000; stroke-width: 0.8; stroke-linejoin: miter; stroke-linecap: square"/>
   </g>
   <g id="patch_16">
    <path d="M 170.128958 70.032739 
L 170.128958 11.945479 
" style="fill: none; stroke: #000000; stroke-width: 0.8; stroke-linejoin: miter; stroke-linecap: square"/>
   </g>
   <g id="patch_17">
    <path d="M 52.58 70.032739 
L 170.128958 70.032739 
" style="fill: none; stroke: #000000; stroke-width: 0.8; stroke-linejoin: miter; stroke-linecap: square"/>
   </g>
   <g id="patch_18">
    <path d="M 52.58 11.945479 
L 170.128958 11.945479 
" style="fill: none; stroke: #000000; stroke-width: 0.8; stroke-linejoin: miter; stroke-linecap: square"/>
   </g>
   <g id="text_8">
    <!-- OOM -->
    <g transform="translate(91.069427 66.032739) scale(0.07 -0.07)">
     <defs>
      <path id="DejaVuSans-4f" d="M 2522 4238 
Q 1834 4238 1429 3725 
Q 1025 3213 1025 2328 
Q 1025 1447 1429 934 
Q 1834 422 2522 422 
Q 3209 422 3611 934 
Q 4013 1447 4013 2328 
Q 4013 3213 3611 3725 
Q 3209 4238 2522 4238 
z
M 2522 4750 
Q 3503 4750 4090 4092 
Q 4678 3434 4678 2328 
Q 4678 1225 4090 567 
Q 3503 -91 2522 -91 
Q 1538 -91 948 565 
Q 359 1222 359 2328 
Q 359 3434 948 4092 
Q 1538 4750 2522 4750 
z
" transform="scale(0.015625)"/>
     </defs>
     <use xlink:href="#DejaVuSans-4f"/>
     <use xlink:href="#DejaVuSans-4f" x="78.710938"/>
     <use xlink:href="#DejaVuSans-4d" x="157.421875"/>
    </g>
   </g>
   <g id="text_9">
    <!-- OOM -->
    <g transform="translate(130.252413 66.032739) scale(0.07 -0.07)">
     <use xlink:href="#DejaVuSans-4f"/>
     <use xlink:href="#DejaVuSans-4f" x="78.710938"/>
     <use xlink:href="#DejaVuSans-4d" x="157.421875"/>
    </g>
   </g>
   <g id="text_10">
    <!-- OOM -->
    <g transform="translate(59.723038 66.032739) scale(0.07 -0.07)">
     <use xlink:href="#DejaVuSans-4f"/>
     <use xlink:href="#DejaVuSans-4f" x="78.710938"/>
     <use xlink:href="#DejaVuSans-4d" x="157.421875"/>
    </g>
   </g>
   <g id="text_11">
    <!-- OOM -->
    <g transform="translate(98.906024 66.032739) scale(0.07 -0.07)">
     <use xlink:href="#DejaVuSans-4f"/>
     <use xlink:href="#DejaVuSans-4f" x="78.710938"/>
     <use xlink:href="#DejaVuSans-4d" x="157.421875"/>
    </g>
   </g>
   <g id="text_12">
    <!-- OOM -->
    <g transform="translate(138.08901 66.032739) scale(0.07 -0.07)">
     <use xlink:href="#DejaVuSans-4f"/>
     <use xlink:href="#DejaVuSans-4f" x="78.710938"/>
     <use xlink:href="#DejaVuSans-4d" x="157.421875"/>
    </g>
   </g>
   <g id="legend_1">
    <g id="patch_19">
     <path d="M 62.434583 107.678604 
L 161.728958 107.678604 
Q 164.128958 107.678604 164.128958 105.278604 
L 164.128958 20.345479 
Q 164.128958 17.945479 161.728958 17.945479 
L 62.434583 17.945479 
Q 60.034583 17.945479 60.034583 20.345479 
L 60.034583 105.278604 
Q 60.034583 107.678604 62.434583 107.678604 
z
" style="fill: #ffffff; opacity: 0.8; stroke: #cccccc; stroke-linejoin: miter"/>
    </g>
    <g id="text_13">
     <!-- Method -->
     <g transform="translate(93.328646 30.343916) scale(0.1 -0.1)">
      <defs>
       <path id="DejaVuSans-64" d="M 2906 2969 
L 2906 4863 
L 3481 4863 
L 3481 0 
L 2906 0 
L 2906 525 
Q 2725 213 2448 61 
Q 2172 -91 1784 -91 
Q 1150 -91 751 415 
Q 353 922 353 1747 
Q 353 2572 751 3078 
Q 1150 3584 1784 3584 
Q 2172 3584 2448 3432 
Q 2725 3281 2906 2969 
z
M 947 1747 
Q 947 1113 1208 752 
Q 1469 391 1925 391 
Q 2381 391 2643 752 
Q 2906 1113 2906 1747 
Q 2906 2381 2643 2742 
Q 2381 3103 1925 3103 
Q 1469 3103 1208 2742 
Q 947 2381 947 1747 
z
" transform="scale(0.015625)"/>
      </defs>
      <use xlink:href="#DejaVuSans-4d"/>
      <use xlink:href="#DejaVuSans-65" x="86.279297"/>
      <use xlink:href="#DejaVuSans-74" x="147.802734"/>
      <use xlink:href="#DejaVuSans-68" x="187.011719"/>
      <use xlink:href="#DejaVuSans-6f" x="250.390625"/>
      <use xlink:href="#DejaVuSans-64" x="311.572266"/>
     </g>
    </g>
    <g id="patch_20">
     <path d="M 64.834583 47.541729 
L 88.834583 47.541729 
L 88.834583 39.141729 
L 64.834583 39.141729 
z
" style="fill: #3a923a"/>
    </g>
    <g id="text_14">
     <!-- 1F1B -->
     <g transform="translate(98.434583 47.541729) scale(0.12 -0.12)">
      <defs>
       <path id="DejaVuSans-46" d="M 628 4666 
L 3309 4666 
L 3309 4134 
L 1259 4134 
L 1259 2759 
L 3109 2759 
L 3109 2228 
L 1259 2228 
L 1259 0 
L 628 0 
L 628 4666 
z
" transform="scale(0.015625)"/>
      </defs>
      <use xlink:href="#DejaVuSans-31"/>
      <use xlink:href="#DejaVuSans-46" x="63.623047"/>
      <use xlink:href="#DejaVuSans-31" x="121.142578"/>
      <use xlink:href="#DejaVuSans-42" x="184.765625"/>
     </g>
    </g>
    <g id="patch_21">
     <path d="M 64.834583 65.155479 
L 88.834583 65.155479 
L 88.834583 56.755479 
L 64.834583 56.755479 
z
" style="fill: #c03d3e"/>
    </g>
    <g id="text_15">
     <!-- 1F1B-I -->
     <g transform="translate(98.434583 65.155479) scale(0.12 -0.12)">
      <defs>
       <path id="DejaVuSans-2d" d="M 313 2009 
L 1997 2009 
L 1997 1497 
L 313 1497 
L 313 2009 
z
" transform="scale(0.015625)"/>
       <path id="DejaVuSans-49" d="M 628 4666 
L 1259 4666 
L 1259 0 
L 628 0 
L 628 4666 
z
" transform="scale(0.015625)"/>
      </defs>
      <use xlink:href="#DejaVuSans-31"/>
      <use xlink:href="#DejaVuSans-46" x="63.623047"/>
      <use xlink:href="#DejaVuSans-31" x="121.142578"/>
      <use xlink:href="#DejaVuSans-42" x="184.765625"/>
      <use xlink:href="#DejaVuSans-2d" x="253.369141"/>
      <use xlink:href="#DejaVuSans-49" x="289.453125"/>
     </g>
    </g>
    <g id="patch_22">
     <path d="M 64.834583 82.769229 
L 88.834583 82.769229 
L 88.834583 74.369229 
L 64.834583 74.369229 
z
" style="fill: #3274a1"/>
    </g>
    <g id="text_16">
     <!-- Seq1F1B -->
     <g transform="translate(98.434583 82.769229) scale(0.12 -0.12)">
      <use xlink:href="#DejaVuSans-53"/>
      <use xlink:href="#DejaVuSans-65" x="63.476562"/>
      <use xlink:href="#DejaVuSans-71" x="125"/>
      <use xlink:href="#DejaVuSans-31" x="188.476562"/>
      <use xlink:href="#DejaVuSans-46" x="252.099609"/>
      <use xlink:href="#DejaVuSans-31" x="309.619141"/>
      <use xlink:href="#DejaVuSans-42" x="373.242188"/>
     </g>
    </g>
    <g id="patch_23">
     <path d="M 64.834583 100.382979 
L 88.834583 100.382979 
L 88.834583 91.982979 
L 64.834583 91.982979 
z
" style="fill: #e1812c"/>
    </g>
    <g id="text_17">
     <!-- Seq1F1B-I -->
     <g transform="translate(98.434583 100.382979) scale(0.12 -0.12)">
      <use xlink:href="#DejaVuSans-53"/>
      <use xlink:href="#DejaVuSans-65" x="63.476562"/>
      <use xlink:href="#DejaVuSans-71" x="125"/>
      <use xlink:href="#DejaVuSans-31" x="188.476562"/>
      <use xlink:href="#DejaVuSans-46" x="252.099609"/>
      <use xlink:href="#DejaVuSans-31" x="309.619141"/>
      <use xlink:href="#DejaVuSans-42" x="373.242188"/>
      <use xlink:href="#DejaVuSans-2d" x="441.845703"/>
      <use xlink:href="#DejaVuSans-49" x="477.929688"/>
     </g>
    </g>
   </g>
  </g>
  <g id="axes_2">
   <g id="patch_24">
    <path d="M 223.731042 70.032739 
L 341.28 70.032739 
L 341.28 11.945479 
L 223.731042 11.945479 
z
" style="fill: #ffffff"/>
   </g>
   <g id="patch_25">
    <path d="M 227.64934 70.032739 
L 235.485938 70.032739 
L 235.485938 51.040256 
L 227.64934 51.040256 
z
" clip-path="url(#p3d56479396)" style="fill: #3a923a"/>
   </g>
   <g id="patch_26">
    <path d="M 266.832326 70.032739 
L 274.668924 70.032739 
L 274.668924 35.86803 
L 266.832326 35.86803 
z
" clip-path="url(#p3d56479396)" style="fill: #3a923a"/>
   </g>
   <g id="patch_27">
    <path d="M 0 0 
z
" clip-path="url(#p3d56479396)" style="fill: #3a923a"/>
   </g>
   <g id="patch_28">
    <path d="M 235.485938 70.032739 
L 243.322535 70.032739 
L 243.322535 45.575836 
L 235.485938 45.575836 
z
" clip-path="url(#p3d56479396)" style="fill: #c03d3e"/>
   </g>
   <g id="patch_29">
    <path d="M 274.668924 70.032739 
L 282.505521 70.032739 
L 282.505521 25.652467 
L 274.668924 25.652467 
z
" clip-path="url(#p3d56479396)" style="fill: #c03d3e"/>
   </g>
   <g id="patch_30">
    <path d="M 0 0 
z
" clip-path="url(#p3d56479396)" style="fill: #c03d3e"/>
   </g>
   <g id="patch_31">
    <path d="M 243.322535 70.032739 
L 251.159132 70.032739 
L 251.159132 54.703351 
L 243.322535 54.703351 
z
" clip-path="url(#p3d56479396)" style="fill: #3274a1"/>
   </g>
   <g id="patch_32">
    <path d="M 282.505521 70.032739 
L 290.342118 70.032739 
L 290.342118 41.235733 
L 282.505521 41.235733 
z
" clip-path="url(#p3d56479396)" style="fill: #3274a1"/>
   </g>
   <g id="patch_33">
    <path d="M 321.688507 70.032739 
L 329.525104 70.032739 
L 329.525104 14.711539 
L 321.688507 14.711539 
z
" clip-path="url(#p3d56479396)" style="fill: #3274a1"/>
   </g>
   <g id="patch_34">
    <path d="M 251.159132 70.032739 
L 258.995729 70.032739 
L 258.995729 56.686016 
L 251.159132 56.686016 
z
" clip-path="url(#p3d56479396)" style="fill: #e1812c"/>
   </g>
   <g id="patch_35">
    <path d="M 290.342118 70.032739 
L 298.178715 70.032739 
L 298.178715 47.618949 
L 290.342118 47.618949 
z
" clip-path="url(#p3d56479396)" style="fill: #e1812c"/>
   </g>
   <g id="patch_36">
    <path d="M 329.525104 70.032739 
L 337.361701 70.032739 
L 337.361701 24.927102 
L 329.525104 24.927102 
z
" clip-path="url(#p3d56479396)" style="fill: #e1812c"/>
   </g>
   <g id="matplotlib.axis_3">
    <g id="xtick_4">
     <g id="line2d_6">
      <g>
       <use xlink:href="#m7122bc5fe3" x="243.322535" y="70.032739" style="stroke: #000000; stroke-width: 0.8"/>
      </g>
     </g>
     <g id="text_18">
      <!-- 32768 -->
      <g transform="translate(222.64441 86.910708) scale(0.13 -0.13)">
       <use xlink:href="#DejaVuSans-33"/>
       <use xlink:href="#DejaVuSans-32" x="63.623047"/>
       <use xlink:href="#DejaVuSans-37" x="127.246094"/>
       <use xlink:href="#DejaVuSans-36" x="190.869141"/>
       <use xlink:href="#DejaVuSans-38" x="254.492188"/>
      </g>
     </g>
    </g>
    <g id="xtick_5">
     <g id="line2d_7">
      <g>
       <use xlink:href="#m7122bc5fe3" x="282.505521" y="70.032739" style="stroke: #000000; stroke-width: 0.8"/>
      </g>
     </g>
     <g id="text_19">
      <!-- 65536 -->
      <g transform="translate(261.827396 86.910708) scale(0.13 -0.13)">
       <use xlink:href="#DejaVuSans-36"/>
       <use xlink:href="#DejaVuSans-35" x="63.623047"/>
       <use xlink:href="#DejaVuSans-35" x="127.246094"/>
       <use xlink:href="#DejaVuSans-33" x="190.869141"/>
       <use xlink:href="#DejaVuSans-36" x="254.492188"/>
      </g>
     </g>
    </g>
    <g id="xtick_6">
     <g id="line2d_8">
      <g>
       <use xlink:href="#m7122bc5fe3" x="321.688507" y="70.032739" style="stroke: #000000; stroke-width: 0.8"/>
      </g>
     </g>
     <g id="text_20">
      <!-- 131072 -->
      <g transform="translate(296.874757 86.910708) scale(0.13 -0.13)">
       <use xlink:href="#DejaVuSans-31"/>
       <use xlink:href="#DejaVuSans-33" x="63.623047"/>
       <use xlink:href="#DejaVuSans-31" x="127.246094"/>
       <use xlink:href="#DejaVuSans-30" x="190.869141"/>
       <use xlink:href="#DejaVuSans-37" x="254.492188"/>
       <use xlink:href="#DejaVuSans-32" x="318.115234"/>
      </g>
     </g>
    </g>
    <g id="text_21">
     <!-- Sequence Length -->
     <g transform="translate(212.904271 105.771802) scale(0.16 -0.16)">
      <use xlink:href="#DejaVuSans-53"/>
      <use xlink:href="#DejaVuSans-65" x="63.476562"/>
      <use xlink:href="#DejaVuSans-71" x="125"/>
      <use xlink:href="#DejaVuSans-75" x="188.476562"/>
      <use xlink:href="#DejaVuSans-65" x="251.855469"/>
      <use xlink:href="#DejaVuSans-6e" x="313.378906"/>
      <use xlink:href="#DejaVuSans-63" x="376.757812"/>
      <use xlink:href="#DejaVuSans-65" x="431.738281"/>
      <use xlink:href="#DejaVuSans-20" x="493.261719"/>
      <use xlink:href="#DejaVuSans-4c" x="525.048828"/>
      <use xlink:href="#DejaVuSans-65" x="579.011719"/>
      <use xlink:href="#DejaVuSans-6e" x="640.535156"/>
      <use xlink:href="#DejaVuSans-67" x="703.914062"/>
      <use xlink:href="#DejaVuSans-74" x="767.390625"/>
      <use xlink:href="#DejaVuSans-68" x="806.599609"/>
     </g>
    </g>
   </g>
   <g id="matplotlib.axis_4">
    <g id="ytick_3">
     <g id="line2d_9">
      <g>
       <use xlink:href="#me85d586fb9" x="223.731042" y="70.032739" style="stroke: #000000; stroke-width: 0.8"/>
      </g>
     </g>
     <g id="text_22">
      <!-- 0 -->
      <g transform="translate(208.459792 74.971724) scale(0.13 -0.13)">
       <use xlink:href="#DejaVuSans-30"/>
      </g>
     </g>
    </g>
    <g id="ytick_4">
     <g id="line2d_10">
      <g>
       <use xlink:href="#me85d586fb9" x="223.731042" y="21.675047" style="stroke: #000000; stroke-width: 0.8"/>
      </g>
     </g>
     <g id="text_23">
      <!-- 50 -->
      <g transform="translate(200.188542 26.614031) scale(0.13 -0.13)">
       <use xlink:href="#DejaVuSans-35"/>
       <use xlink:href="#DejaVuSans-30" x="63.623047"/>
      </g>
     </g>
    </g>
    <g id="text_24">
     <!-- Memory (GB) -->
     <g transform="translate(192.861042 93.997859) rotate(-90) scale(0.16 -0.16)">
      <use xlink:href="#DejaVuSans-4d"/>
      <use xlink:href="#DejaVuSans-65" x="86.279297"/>
      <use xlink:href="#DejaVuSans-6d" x="147.802734"/>
      <use xlink:href="#DejaVuSans-6f" x="245.214844"/>
      <use xlink:href="#DejaVuSans-72" x="306.396484"/>
      <use xlink:href="#DejaVuSans-79" x="347.509766"/>
      <use xlink:href="#DejaVuSans-20" x="406.689453"/>
      <use xlink:href="#DejaVuSans-28" x="438.476562"/>
      <use xlink:href="#DejaVuSans-47" x="477.490234"/>
      <use xlink:href="#DejaVuSans-42" x="554.980469"/>
      <use xlink:href="#DejaVuSans-29" x="623.583984"/>
     </g>
    </g>
   </g>
   <g id="patch_37">
    <path d="M 223.731042 70.032739 
L 223.731042 11.945479 
" style="fill: none; stroke: #000000; stroke-width: 0.8; stroke-linejoin: miter; stroke-linecap: square"/>
   </g>
   <g id="patch_38">
    <path d="M 341.28 70.032739 
L 341.28 11.945479 
" style="fill: none; stroke: #000000; stroke-width: 0.8; stroke-linejoin: miter; stroke-linecap: square"/>
   </g>
   <g id="patch_39">
    <path d="M 223.731042 70.032739 
L 341.28 70.032739 
" style="fill: none; stroke: #000000; stroke-width: 0.8; stroke-linejoin: miter; stroke-linecap: square"/>
   </g>
   <g id="patch_40">
    <path d="M 223.731042 11.945479 
L 341.28 11.945479 
" style="fill: none; stroke: #000000; stroke-width: 0.8; stroke-linejoin: miter; stroke-linecap: square"/>
   </g>
   <g id="text_25">
    <!-- OOM -->
    <g transform="translate(301.403455 66.032739) scale(0.07 -0.07)">
     <use xlink:href="#DejaVuSans-4f"/>
     <use xlink:href="#DejaVuSans-4f" x="78.710938"/>
     <use xlink:href="#DejaVuSans-4d" x="157.421875"/>
    </g>
   </g>
   <g id="text_26">
    <!-- OOM -->
    <g transform="translate(309.240052 66.032739) scale(0.07 -0.07)">
     <use xlink:href="#DejaVuSans-4f"/>
     <use xlink:href="#DejaVuSans-4f" x="78.710938"/>
     <use xlink:href="#DejaVuSans-4d" x="157.421875"/>
    </g>
   </g>
   <g id="legend_2">
    <g id="patch_41">
     <path d="M 233.585625 107.678604 
L 332.88 107.678604 
Q 335.28 107.678604 335.28 105.278604 
L 335.28 20.345479 
Q 335.28 17.945479 332.88 17.945479 
L 233.585625 17.945479 
Q 231.185625 17.945479 231.185625 20.345479 
L 231.185625 105.278604 
Q 231.185625 107.678604 233.585625 107.678604 
z
" style="fill: #ffffff; opacity: 0.8; stroke: #cccccc; stroke-linejoin: miter"/>
    </g>
    <g id="text_27">
     <!-- Method -->
     <g transform="translate(264.479688 30.343916) scale(0.1 -0.1)">
      <use xlink:href="#DejaVuSans-4d"/>
      <use xlink:href="#DejaVuSans-65" x="86.279297"/>
      <use xlink:href="#DejaVuSans-74" x="147.802734"/>
      <use xlink:href="#DejaVuSans-68" x="187.011719"/>
      <use xlink:href="#DejaVuSans-6f" x="250.390625"/>
      <use xlink:href="#DejaVuSans-64" x="311.572266"/>
     </g>
    </g>
    <g id="patch_42">
     <path d="M 235.985625 47.541729 
L 259.985625 47.541729 
L 259.985625 39.141729 
L 235.985625 39.141729 
z
" style="fill: #3a923a"/>
    </g>
    <g id="text_28">
     <!-- 1F1B -->
     <g transform="translate(269.585625 47.541729) scale(0.12 -0.12)">
      <use xlink:href="#DejaVuSans-31"/>
      <use xlink:href="#DejaVuSans-46" x="63.623047"/>
      <use xlink:href="#DejaVuSans-31" x="121.142578"/>
      <use xlink:href="#DejaVuSans-42" x="184.765625"/>
     </g>
    </g>
    <g id="patch_43">
     <path d="M 235.985625 65.155479 
L 259.985625 65.155479 
L 259.985625 56.755479 
L 235.985625 56.755479 
z
" style="fill: #c03d3e"/>
    </g>
    <g id="text_29">
     <!-- 1F1B-I -->
     <g transform="translate(269.585625 65.155479) scale(0.12 -0.12)">
      <use xlink:href="#DejaVuSans-31"/>
      <use xlink:href="#DejaVuSans-46" x="63.623047"/>
      <use xlink:href="#DejaVuSans-31" x="121.142578"/>
      <use xlink:href="#DejaVuSans-42" x="184.765625"/>
      <use xlink:href="#DejaVuSans-2d" x="253.369141"/>
      <use xlink:href="#DejaVuSans-49" x="289.453125"/>
     </g>
    </g>
    <g id="patch_44">
     <path d="M 235.985625 82.769229 
L 259.985625 82.769229 
L 259.985625 74.369229 
L 235.985625 74.369229 
z
" style="fill: #3274a1"/>
    </g>
    <g id="text_30">
     <!-- Seq1F1B -->
     <g transform="translate(269.585625 82.769229) scale(0.12 -0.12)">
      <use xlink:href="#DejaVuSans-53"/>
      <use xlink:href="#DejaVuSans-65" x="63.476562"/>
      <use xlink:href="#DejaVuSans-71" x="125"/>
      <use xlink:href="#DejaVuSans-31" x="188.476562"/>
      <use xlink:href="#DejaVuSans-46" x="252.099609"/>
      <use xlink:href="#DejaVuSans-31" x="309.619141"/>
      <use xlink:href="#DejaVuSans-42" x="373.242188"/>
     </g>
    </g>
    <g id="patch_45">
     <path d="M 235.985625 100.382979 
L 259.985625 100.382979 
L 259.985625 91.982979 
L 235.985625 91.982979 
z
" style="fill: #e1812c"/>
    </g>
    <g id="text_31">
     <!-- Seq1F1B-I -->
     <g transform="translate(269.585625 100.382979) scale(0.12 -0.12)">
      <use xlink:href="#DejaVuSans-53"/>
      <use xlink:href="#DejaVuSans-65" x="63.476562"/>
      <use xlink:href="#DejaVuSans-71" x="125"/>
      <use xlink:href="#DejaVuSans-31" x="188.476562"/>
      <use xlink:href="#DejaVuSans-46" x="252.099609"/>
      <use xlink:href="#DejaVuSans-31" x="309.619141"/>
      <use xlink:href="#DejaVuSans-42" x="373.242188"/>
      <use xlink:href="#DejaVuSans-2d" x="441.845703"/>
      <use xlink:href="#DejaVuSans-49" x="477.929688"/>
     </g>
    </g>
   </g>
  </g>
  <g id="axes_3">
   <g id="patch_46">
    <path d="M 52.58 181.24 
L 170.128958 181.24 
L 170.128958 123.152739 
L 52.58 123.152739 
z
" style="fill: #ffffff"/>
   </g>
   <g id="patch_47">
    <path d="M 56.498299 181.24 
L 64.334896 181.24 
L 64.334896 150.778326 
L 56.498299 150.778326 
z
" clip-path="url(#pdb62a0d12c)" style="fill: #3a923a"/>
   </g>
   <g id="patch_48">
    <path d="M 95.681285 181.24 
L 103.517882 181.24 
L 103.517882 137.714699 
L 95.681285 137.714699 
z
" clip-path="url(#pdb62a0d12c)" style="fill: #3a923a"/>
   </g>
   <g id="patch_49">
    <path d="M 134.864271 181.24 
L 142.700868 181.24 
L 142.700868 132.7766 
L 134.864271 132.7766 
z
" clip-path="url(#pdb62a0d12c)" style="fill: #3a923a"/>
   </g>
   <g id="patch_50">
    <path d="M 64.334896 181.24 
L 72.171493 181.24 
L 72.171493 142.616578 
L 64.334896 142.616578 
z
" clip-path="url(#pdb62a0d12c)" style="fill: #c03d3e"/>
   </g>
   <g id="patch_51">
    <path d="M 103.517882 181.24 
L 111.354479 181.24 
L 111.354479 125.9188 
L 103.517882 125.9188 
z
" clip-path="url(#pdb62a0d12c)" style="fill: #c03d3e"/>
   </g>
   <g id="patch_52">
    <path d="M 0 0 
z
" clip-path="url(#pdb62a0d12c)" style="fill: #c03d3e"/>
   </g>
   <g id="patch_53">
    <path d="M 72.171493 181.24 
L 80.00809 181.24 
L 80.00809 156.899638 
L 72.171493 156.899638 
z
" clip-path="url(#pdb62a0d12c)" style="fill: #3274a1"/>
   </g>
   <g id="patch_54">
    <path d="M 111.354479 181.24 
L 119.191076 181.24 
L 119.191076 146.262803 
L 111.354479 146.262803 
z
" clip-path="url(#pdb62a0d12c)" style="fill: #3274a1"/>
   </g>
   <g id="patch_55">
    <path d="M 150.537465 181.24 
L 158.374062 181.24 
L 158.374062 139.441223 
L 150.537465 139.441223 
z
" clip-path="url(#pdb62a0d12c)" style="fill: #3274a1"/>
   </g>
   <g id="patch_56">
    <path d="M 80.00809 181.24 
L 87.844688 181.24 
L 87.844688 160.074992 
L 80.00809 160.074992 
z
" clip-path="url(#pdb62a0d12c)" style="fill: #e1812c"/>
   </g>
   <g id="patch_57">
    <path d="M 119.191076 181.24 
L 127.027674 181.24 
L 127.027674 151.961538 
L 119.191076 151.961538 
z
" clip-path="url(#pdb62a0d12c)" style="fill: #e1812c"/>
   </g>
   <g id="patch_58">
    <path d="M 158.374062 181.24 
L 166.21066 181.24 
L 166.21066 146.878556 
L 158.374062 146.878556 
z
" clip-path="url(#pdb62a0d12c)" style="fill: #e1812c"/>
   </g>
   <g id="matplotlib.axis_5">
    <g id="xtick_7">
     <g id="line2d_11">
      <g>
       <use xlink:href="#m7122bc5fe3" x="72.171493" y="181.24" style="stroke: #000000; stroke-width: 0.8"/>
      </g>
     </g>
     <g id="text_32">
      <!-- 32768 -->
      <g transform="translate(51.493368 198.117969) scale(0.13 -0.13)">
       <use xlink:href="#DejaVuSans-33"/>
       <use xlink:href="#DejaVuSans-32" x="63.623047"/>
       <use xlink:href="#DejaVuSans-37" x="127.246094"/>
       <use xlink:href="#DejaVuSans-36" x="190.869141"/>
       <use xlink:href="#DejaVuSans-38" x="254.492188"/>
      </g>
     </g>
    </g>
    <g id="xtick_8">
     <g id="line2d_12">
      <g>
       <use xlink:href="#m7122bc5fe3" x="111.354479" y="181.24" style="stroke: #000000; stroke-width: 0.8"/>
      </g>
     </g>
     <g id="text_33">
      <!-- 49152 -->
      <g transform="translate(90.676354 198.117969) scale(0.13 -0.13)">
       <use xlink:href="#DejaVuSans-34"/>
       <use xlink:href="#DejaVuSans-39" x="63.623047"/>
       <use xlink:href="#DejaVuSans-31" x="127.246094"/>
       <use xlink:href="#DejaVuSans-35" x="190.869141"/>
       <use xlink:href="#DejaVuSans-32" x="254.492188"/>
      </g>
     </g>
    </g>
    <g id="xtick_9">
     <g id="line2d_13">
      <g>
       <use xlink:href="#m7122bc5fe3" x="150.537465" y="181.24" style="stroke: #000000; stroke-width: 0.8"/>
      </g>
     </g>
     <g id="text_34">
      <!-- 65536 -->
      <g transform="translate(129.85934 198.117969) scale(0.13 -0.13)">
       <use xlink:href="#DejaVuSans-36"/>
       <use xlink:href="#DejaVuSans-35" x="63.623047"/>
       <use xlink:href="#DejaVuSans-35" x="127.246094"/>
       <use xlink:href="#DejaVuSans-33" x="190.869141"/>
       <use xlink:href="#DejaVuSans-36" x="254.492188"/>
      </g>
     </g>
    </g>
    <g id="text_35">
     <!-- Sequence Length -->
     <g transform="translate(41.753229 216.979063) scale(0.16 -0.16)">
      <use xlink:href="#DejaVuSans-53"/>
      <use xlink:href="#DejaVuSans-65" x="63.476562"/>
      <use xlink:href="#DejaVuSans-71" x="125"/>
      <use xlink:href="#DejaVuSans-75" x="188.476562"/>
      <use xlink:href="#DejaVuSans-65" x="251.855469"/>
      <use xlink:href="#DejaVuSans-6e" x="313.378906"/>
      <use xlink:href="#DejaVuSans-63" x="376.757812"/>
      <use xlink:href="#DejaVuSans-65" x="431.738281"/>
      <use xlink:href="#DejaVuSans-20" x="493.261719"/>
      <use xlink:href="#DejaVuSans-4c" x="525.048828"/>
      <use xlink:href="#DejaVuSans-65" x="579.011719"/>
      <use xlink:href="#DejaVuSans-6e" x="640.535156"/>
      <use xlink:href="#DejaVuSans-67" x="703.914062"/>
      <use xlink:href="#DejaVuSans-74" x="767.390625"/>
      <use xlink:href="#DejaVuSans-68" x="806.599609"/>
     </g>
    </g>
   </g>
   <g id="matplotlib.axis_6">
    <g id="ytick_5">
     <g id="line2d_14">
      <g>
       <use xlink:href="#me85d586fb9" x="52.58" y="181.24" style="stroke: #000000; stroke-width: 0.8"/>
      </g>
     </g>
     <g id="text_36">
      <!-- 0 -->
      <g transform="translate(37.30875 186.178984) scale(0.13 -0.13)">
       <use xlink:href="#DejaVuSans-30"/>
      </g>
     </g>
    </g>
    <g id="ytick_6">
     <g id="line2d_15">
      <g>
       <use xlink:href="#me85d586fb9" x="52.58" y="132.94563" style="stroke: #000000; stroke-width: 0.8"/>
      </g>
     </g>
     <g id="text_37">
      <!-- 50 -->
      <g transform="translate(29.0375 137.884615) scale(0.13 -0.13)">
       <use xlink:href="#DejaVuSans-35"/>
       <use xlink:href="#DejaVuSans-30" x="63.623047"/>
      </g>
     </g>
    </g>
    <g id="text_38">
     <!-- Memory (GB) -->
     <g transform="translate(21.71 205.20512) rotate(-90) scale(0.16 -0.16)">
      <use xlink:href="#DejaVuSans-4d"/>
      <use xlink:href="#DejaVuSans-65" x="86.279297"/>
      <use xlink:href="#DejaVuSans-6d" x="147.802734"/>
      <use xlink:href="#DejaVuSans-6f" x="245.214844"/>
      <use xlink:href="#DejaVuSans-72" x="306.396484"/>
      <use xlink:href="#DejaVuSans-79" x="347.509766"/>
      <use xlink:href="#DejaVuSans-20" x="406.689453"/>
      <use xlink:href="#DejaVuSans-28" x="438.476562"/>
      <use xlink:href="#DejaVuSans-47" x="477.490234"/>
      <use xlink:href="#DejaVuSans-42" x="554.980469"/>
      <use xlink:href="#DejaVuSans-29" x="623.583984"/>
     </g>
    </g>
   </g>
   <g id="patch_59">
    <path d="M 52.58 181.24 
L 52.58 123.152739 
" style="fill: none; stroke: #000000; stroke-width: 0.8; stroke-linejoin: miter; stroke-linecap: square"/>
   </g>
   <g id="patch_60">
    <path d="M 170.128958 181.24 
L 170.128958 123.152739 
" style="fill: none; stroke: #000000; stroke-width: 0.8; stroke-linejoin: miter; stroke-linecap: square"/>
   </g>
   <g id="patch_61">
    <path d="M 52.58 181.24 
L 170.128958 181.24 
" style="fill: none; stroke: #000000; stroke-width: 0.8; stroke-linejoin: miter; stroke-linecap: square"/>
   </g>
   <g id="patch_62">
    <path d="M 52.58 123.152739 
L 170.128958 123.152739 
" style="fill: none; stroke: #000000; stroke-width: 0.8; stroke-linejoin: miter; stroke-linecap: square"/>
   </g>
   <g id="text_39">
    <!-- OOM -->
    <g transform="translate(138.08901 177.24) scale(0.07 -0.07)">
     <use xlink:href="#DejaVuSans-4f"/>
     <use xlink:href="#DejaVuSans-4f" x="78.710938"/>
     <use xlink:href="#DejaVuSans-4d" x="157.421875"/>
    </g>
   </g>
   <g id="legend_3">
    <g id="patch_63">
     <path d="M 62.434583 218.885864 
L 161.728958 218.885864 
Q 164.128958 218.885864 164.128958 216.485864 
L 164.128958 131.552739 
Q 164.128958 129.152739 161.728958 129.152739 
L 62.434583 129.152739 
Q 60.034583 129.152739 60.034583 131.552739 
L 60.034583 216.485864 
Q 60.034583 218.885864 62.434583 218.885864 
z
" style="fill: #ffffff; opacity: 0.8; stroke: #cccccc; stroke-linejoin: miter"/>
    </g>
    <g id="text_40">
     <!-- Method -->
     <g transform="translate(93.328646 141.551177) scale(0.1 -0.1)">
      <use xlink:href="#DejaVuSans-4d"/>
      <use xlink:href="#DejaVuSans-65" x="86.279297"/>
      <use xlink:href="#DejaVuSans-74" x="147.802734"/>
      <use xlink:href="#DejaVuSans-68" x="187.011719"/>
      <use xlink:href="#DejaVuSans-6f" x="250.390625"/>
      <use xlink:href="#DejaVuSans-64" x="311.572266"/>
     </g>
    </g>
    <g id="patch_64">
     <path d="M 64.834583 158.748989 
L 88.834583 158.748989 
L 88.834583 150.348989 
L 64.834583 150.348989 
z
" style="fill: #3a923a"/>
    </g>
    <g id="text_41">
     <!-- 1F1B -->
     <g transform="translate(98.434583 158.748989) scale(0.12 -0.12)">
      <use xlink:href="#DejaVuSans-31"/>
      <use xlink:href="#DejaVuSans-46" x="63.623047"/>
      <use xlink:href="#DejaVuSans-31" x="121.142578"/>
      <use xlink:href="#DejaVuSans-42" x="184.765625"/>
     </g>
    </g>
    <g id="patch_65">
     <path d="M 64.834583 176.362739 
L 88.834583 176.362739 
L 88.834583 167.962739 
L 64.834583 167.962739 
z
" style="fill: #c03d3e"/>
    </g>
    <g id="text_42">
     <!-- 1F1B-I -->
     <g transform="translate(98.434583 176.362739) scale(0.12 -0.12)">
      <use xlink:href="#DejaVuSans-31"/>
      <use xlink:href="#DejaVuSans-46" x="63.623047"/>
      <use xlink:href="#DejaVuSans-31" x="121.142578"/>
      <use xlink:href="#DejaVuSans-42" x="184.765625"/>
      <use xlink:href="#DejaVuSans-2d" x="253.369141"/>
      <use xlink:href="#DejaVuSans-49" x="289.453125"/>
     </g>
    </g>
    <g id="patch_66">
     <path d="M 64.834583 193.976489 
L 88.834583 193.976489 
L 88.834583 185.576489 
L 64.834583 185.576489 
z
" style="fill: #3274a1"/>
    </g>
    <g id="text_43">
     <!-- Seq1F1B -->
     <g transform="translate(98.434583 193.976489) scale(0.12 -0.12)">
      <use xlink:href="#DejaVuSans-53"/>
      <use xlink:href="#DejaVuSans-65" x="63.476562"/>
      <use xlink:href="#DejaVuSans-71" x="125"/>
      <use xlink:href="#DejaVuSans-31" x="188.476562"/>
      <use xlink:href="#DejaVuSans-46" x="252.099609"/>
      <use xlink:href="#DejaVuSans-31" x="309.619141"/>
      <use xlink:href="#DejaVuSans-42" x="373.242188"/>
     </g>
    </g>
    <g id="patch_67">
     <path d="M 64.834583 211.590239 
L 88.834583 211.590239 
L 88.834583 203.190239 
L 64.834583 203.190239 
z
" style="fill: #e1812c"/>
    </g>
    <g id="text_44">
     <!-- Seq1F1B-I -->
     <g transform="translate(98.434583 211.590239) scale(0.12 -0.12)">
      <use xlink:href="#DejaVuSans-53"/>
      <use xlink:href="#DejaVuSans-65" x="63.476562"/>
      <use xlink:href="#DejaVuSans-71" x="125"/>
      <use xlink:href="#DejaVuSans-31" x="188.476562"/>
      <use xlink:href="#DejaVuSans-46" x="252.099609"/>
      <use xlink:href="#DejaVuSans-31" x="309.619141"/>
      <use xlink:href="#DejaVuSans-42" x="373.242188"/>
      <use xlink:href="#DejaVuSans-2d" x="441.845703"/>
      <use xlink:href="#DejaVuSans-49" x="477.929688"/>
     </g>
    </g>
   </g>
  </g>
  <g id="axes_4">
   <g id="patch_68">
    <path d="M 223.731042 181.24 
L 341.28 181.24 
L 341.28 123.152739 
L 223.731042 123.152739 
z
" style="fill: #ffffff"/>
   </g>
   <g id="matplotlib.axis_7">
    <g id="xtick_10">
     <g id="line2d_16">
      <g>
       <use xlink:href="#m7122bc5fe3" x="223.731042" y="181.24" style="stroke: #000000; stroke-width: 0.8"/>
      </g>
     </g>
     <g id="text_45">
      <!-- 0.0 -->
      <g transform="translate(215.779479 195.838438) scale(0.1 -0.1)">
       <defs>
        <path id="DejaVuSans-2e" d="M 684 794 
L 1344 794 
L 1344 0 
L 684 0 
L 684 794 
z
" transform="scale(0.015625)"/>
       </defs>
       <use xlink:href="#DejaVuSans-30"/>
       <use xlink:href="#DejaVuSans-2e" x="63.623047"/>
       <use xlink:href="#DejaVuSans-30" x="95.410156"/>
      </g>
     </g>
    </g>
    <g id="xtick_11">
     <g id="line2d_17">
      <g>
       <use xlink:href="#m7122bc5fe3" x="282.505521" y="181.24" style="stroke: #000000; stroke-width: 0.8"/>
      </g>
     </g>
     <g id="text_46">
      <!-- 0.5 -->
      <g transform="translate(274.553958 195.838438) scale(0.1 -0.1)">
       <use xlink:href="#DejaVuSans-30"/>
       <use xlink:href="#DejaVuSans-2e" x="63.623047"/>
       <use xlink:href="#DejaVuSans-35" x="95.410156"/>
      </g>
     </g>
    </g>
    <g id="xtick_12">
     <g id="line2d_18">
      <g>
       <use xlink:href="#m7122bc5fe3" x="341.28" y="181.24" style="stroke: #000000; stroke-width: 0.8"/>
      </g>
     </g>
     <g id="text_47">
      <!-- 1.0 -->
      <g transform="translate(333.328437 195.838438) scale(0.1 -0.1)">
       <use xlink:href="#DejaVuSans-31"/>
       <use xlink:href="#DejaVuSans-2e" x="63.623047"/>
       <use xlink:href="#DejaVuSans-30" x="95.410156"/>
      </g>
     </g>
    </g>
   </g>
   <g id="matplotlib.axis_8">
    <g id="ytick_7">
     <g id="line2d_19">
      <g>
       <use xlink:href="#me85d586fb9" x="223.731042" y="181.24" style="stroke: #000000; stroke-width: 0.8"/>
      </g>
     </g>
     <g id="text_48">
      <!-- 0.0 -->
      <g transform="translate(200.827917 185.039219) scale(0.1 -0.1)">
       <use xlink:href="#DejaVuSans-30"/>
       <use xlink:href="#DejaVuSans-2e" x="63.623047"/>
       <use xlink:href="#DejaVuSans-30" x="95.410156"/>
      </g>
     </g>
    </g>
    <g id="ytick_8">
     <g id="line2d_20">
      <g>
       <use xlink:href="#me85d586fb9" x="223.731042" y="152.19637" style="stroke: #000000; stroke-width: 0.8"/>
      </g>
     </g>
     <g id="text_49">
      <!-- 0.5 -->
      <g transform="translate(200.827917 155.995588) scale(0.1 -0.1)">
       <use xlink:href="#DejaVuSans-30"/>
       <use xlink:href="#DejaVuSans-2e" x="63.623047"/>
       <use xlink:href="#DejaVuSans-35" x="95.410156"/>
      </g>
     </g>
    </g>
    <g id="ytick_9">
     <g id="line2d_21">
      <g>
       <use xlink:href="#me85d586fb9" x="223.731042" y="123.152739" style="stroke: #000000; stroke-width: 0.8"/>
      </g>
     </g>
     <g id="text_50">
      <!-- 1.0 -->
      <g transform="translate(200.827917 126.951958) scale(0.1 -0.1)">
       <use xlink:href="#DejaVuSans-31"/>
       <use xlink:href="#DejaVuSans-2e" x="63.623047"/>
       <use xlink:href="#DejaVuSans-30" x="95.410156"/>
      </g>
     </g>
    </g>
   </g>
   <g id="patch_69">
    <path d="M 223.731042 181.24 
L 223.731042 123.152739 
" style="fill: none; stroke: #000000; stroke-width: 0.8; stroke-linejoin: miter; stroke-linecap: square"/>
   </g>
   <g id="patch_70">
    <path d="M 341.28 181.24 
L 341.28 123.152739 
" style="fill: none; stroke: #000000; stroke-width: 0.8; stroke-linejoin: miter; stroke-linecap: square"/>
   </g>
   <g id="patch_71">
    <path d="M 223.731042 181.24 
L 341.28 181.24 
" style="fill: none; stroke: #000000; stroke-width: 0.8; stroke-linejoin: miter; stroke-linecap: square"/>
   </g>
   <g id="patch_72">
    <path d="M 223.731042 123.152739 
L 341.28 123.152739 
" style="fill: none; stroke: #000000; stroke-width: 0.8; stroke-linejoin: miter; stroke-linecap: square"/>
   </g>
  </g>
 </g>
 <defs>
  <clipPath id="paaa1c6ad8b">
   <rect x="52.58" y="11.945479" width="117.548958" height="58.087261"/>
  </clipPath>
  <clipPath id="p3d56479396">
   <rect x="223.731042" y="11.945479" width="117.548958" height="58.087261"/>
  </clipPath>
  <clipPath id="pdb62a0d12c">
   <rect x="52.58" y="123.152739" width="117.548958" height="58.087261"/>
  </clipPath>
 </defs>
</svg>
